<svg xmlns="http://www.w3.org/2000/svg" viewBox="0 0 132 132">
  <rect width="132" height="132" rx="26" fill="#16151a"/>
  <g transform="translate(4,14)">
    <path d="M38 50 A 29 28 0 0 1 94 50" stroke="#c8a24a" stroke-width="5.5" fill="none"/>
    <path d="M50 50 C 42 40, 43 22, 53 11 C 57 7, 63 9, 64 15 C 66 29, 62 42, 58 52 Z" fill="#c8a24a" stroke="#16151a" stroke-width="2.6" stroke-linejoin="round"/>
    <g stroke="#16151a" stroke-width="2.2" stroke-linecap="round"><path d="M50 23 l8 4"/><path d="M52 32 l8 4"/><path d="M54 41 l7 4"/></g>
    <path d="M63 52 C 60 39, 64 24, 74 15 C 78 11, 84 14, 84 20 C 84 33, 78 44, 72 53 Z" fill="#c8a24a" stroke="#16151a" stroke-width="2.6" stroke-linejoin="round"/>
    <g stroke="#16151a" stroke-width="2.2" stroke-linecap="round"><path d="M67 27 l8 3"/><path d="M67 36 l8 3"/><path d="M68 45 l7 3"/></g>
    <circle cx="88" cy="42" r="11" fill="#c8a24a" stroke="#16151a" stroke-width="2.6"/>
    <path d="M88 31 L88 26" stroke="#16151a" stroke-width="2.2" stroke-linecap="round"/>
    <path d="M88 28 C 91 23, 96 21, 101 23 C 99 28, 94 30, 88 28 Z" fill="#c8a24a" stroke="#16151a" stroke-width="1.8" stroke-linejoin="round"/>
    <rect x="34" y="50" width="64" height="10" rx="5" fill="#c8a24a" stroke="#16151a" stroke-width="2.2"/>
    <path d="M39 60 C 41 82, 49 94, 66 94 C 83 94, 91 82, 93 60 Z" fill="#c8a24a" stroke="#16151a" stroke-width="2.2"/>
    <g stroke="#16151a" stroke-width="2.4" stroke-linecap="round"><path d="M50 61 C 51 75, 55 86, 60 92"/><path d="M66 61 L66 94"/><path d="M82 61 C 81 75, 77 86, 72 92"/></g>
  </g>
</svg>
